<svg xmlns="http://www.w3.org/2000/svg" viewBox="0 0 42.78 40.43"><defs><style>.cls-1{font-size:24.82px;font-family:SofiaPro-Regular, Sofia Pro;}.cls-1,.cls-2,.cls-3{fill:#f5f5f5;}.cls-2{font-size:17.4px;font-family:SofiaPro-Medium, Sofia Pro;font-weight:500;letter-spacing:-0.03em;}.cls-4{fill:#e2c48c;}</style></defs><g id="Layer_2" data-name="Layer 2"><g id="Layer_1-2" data-name="Layer 1"><text class="cls-1" transform="translate(0 28.55)">M</text><text class="cls-2" transform="translate(33.51 33.74)">T</text><path class="cls-3" d="M15.11.09c10.44,3,14.44,14.28,11.46,24.72S14.28,42.51,3.85,39.53h0l0,.09A21,21,0,0,0,29.74,25.2c3.18-11.14-3.47-22-14.6-25.2"/><path class="cls-4" d="M20.12,7.07c-1.23.08-1.88.16-2.24.52s-.44,1-.53,2.25c-.08-1.23-.16-1.88-.52-2.25s-1-.44-2.25-.52c1.24-.09,1.89-.16,2.25-.53s.44-1,.52-2.24c.09,1.23.17,1.88.53,2.24S18.89,7,20.12,7.07Z"/></g></g></svg>